<svg width="378" height="221" viewBox="0 0 378 221" fill="none" xmlns="http://www.w3.org/2000/svg">
<path d="M22.6064 153.745C22.7484 154.315 22.7484 154.885 22.8904 155.455C29.5205 193.102 48.2827 211.002 50.7445 213.213C50.9197 213.37 51.1413 213.448 51.3766 213.448H364.16C364.526 213.448 364.854 213.264 365.023 212.938C367.313 208.504 383.34 175.938 375.549 147.19C375.407 146.763 375.265 146.193 375.123 145.765C369.442 127.384 353.819 110.856 318.027 104.586C310.358 103.304 303.256 102.021 296.723 100.739C295.729 100.597 294.876 100.454 294.024 100.169C271.3 95.7519 255.534 91.9047 243.462 87.4876C242.61 87.2026 241.758 86.7751 240.905 86.4902C216.476 76.8009 208.097 64.2619 186.082 38.7565C184.378 36.7616 182.531 34.7668 180.685 32.9144C180.259 32.4869 179.833 32.0595 179.407 31.632C167.476 20.5179 151.711 10.8287 134.809 5.12912C134.383 4.98663 133.957 4.84414 133.389 4.70165C111.659 -2.13781 88.0818 -2.2803 68.1978 9.83124C67.4876 10.2587 66.6354 10.8287 65.9253 11.2561C50.16 21.6578 36.8093 40.1813 28.8556 69.3915C19.4817 104.301 19.0556 132.229 22.6064 153.745Z" fill="#DEF3FD" fill-opacity="0.25"/>
<path d="M32.2858 76.5167C36.8307 99.3149 52.3119 117.696 78.4453 131.09C129.718 157.45 150.17 190.365 158.124 213.448H159.686V213.306C151.59 189.938 130.996 156.453 79.1555 129.808C53.4482 116.556 38.251 98.6025 33.7061 76.2318C29.1612 53.1486 36.8307 28.9255 46.3467 9.83203C45.6366 10.2595 44.7844 10.8295 44.0742 11.2569C34.9844 30.2079 27.7409 53.861 32.2858 76.5167Z" fill="white"/>
<path d="M0.612854 153.746C0.75489 154.316 0.754906 154.886 0.896935 155.456C19.2187 164.005 42.6535 172.982 72.3377 182.101C95.7725 189.226 112.39 199.77 121.622 213.449H123.326C113.952 199.058 97.0508 188.086 72.7638 180.676C42.6535 171.557 19.0767 162.295 0.612854 153.746Z" fill="white"/>
<path d="M109.55 28.0692C109.55 52.8623 116.793 86.7746 151.307 106.866C165.936 115.415 182.411 118.55 198.744 118.55C221.043 118.55 243.484 112.565 261.379 106.011C266.066 104.301 270.469 102.591 274.73 100.738C273.736 100.596 272.884 100.454 272.031 100.169C236.524 114.845 188.376 126.671 152.017 105.441C118.072 85.6347 110.97 52.2923 110.97 27.9267C110.97 19.6624 111.68 11.968 112.817 4.98606C112.391 4.84357 111.964 4.70108 111.396 4.55859C110.402 11.683 109.55 19.6624 109.55 28.0692Z" fill="white"/>
<path d="M160.822 76.0874C167.782 85.2067 179.996 89.9088 197.466 89.9088C204.567 89.9088 212.521 89.1964 221.469 87.629C220.617 87.344 219.764 86.9166 218.912 86.6316C190.364 91.1912 171.332 87.4865 162.101 75.375C153.863 64.5458 154.857 48.4446 158.692 33.0558C158.266 32.6284 157.84 32.2009 157.414 31.7734C153.153 47.5897 152.158 64.5458 160.822 76.0874Z" fill="white"/>
<path d="M185.109 213.448H186.53C189.512 201.479 195.193 188.655 205.277 178.111C222.037 161.012 247.318 153.745 280.553 156.88C311.089 159.587 335.376 156.31 353.272 147.191C353.13 146.763 352.988 146.193 352.846 145.766C335.092 154.885 310.947 158.162 280.695 155.455C246.892 152.32 221.185 159.73 204.283 177.113C193.915 187.942 188.234 201.194 185.109 213.448Z" fill="white"/>
<path d="M307.255 200.052C307.255 200.052 299.017 181.671 317.907 167.422C336.797 153.173 341.058 142.914 341.058 142.914C341.058 142.914 347.449 176.399 335.945 192.215V215.156H308.107L307.255 200.052Z" fill="#9CB74E"/>
<path d="M324.015 213.872C324.015 213.872 324.867 201.048 312.226 192.499C299.444 183.95 299.728 175.258 299.728 175.258C299.728 175.258 289.928 199.766 302.284 213.872H324.015Z" fill="#BADD70"/>
<path d="M321.174 213.874C321.174 213.874 319.186 196.633 335.235 187.371C351.284 178.11 354.835 166.141 354.835 166.141C354.835 166.141 363.641 196.206 349.154 213.874H321.174Z" fill="#607E2E"/>
<path d="M221.611 179.392C226.582 187.657 233.116 195.636 240.927 203.188V211.737H221.753C221.753 211.737 215.646 208.46 203.574 199.198C203.574 199.198 199.597 172.553 221.611 179.392Z" fill="#F0B2A4"/>
<path d="M100.887 195.778C100.887 195.778 101.739 212.876 106 214.016C110.261 215.156 127.73 199.198 127.73 199.198L129.719 191.646L116.794 182.241C116.794 182.099 101.455 186.801 100.887 195.778Z" fill="#F0B2A4"/>
<path d="M100.887 195.78C105.005 187.943 130.145 193.642 130.145 193.642L112.249 211.738H192.922C190.223 202.477 191.785 179.678 191.785 179.678C191.785 179.821 191.785 179.963 191.785 180.106C192.922 189.225 197.751 194.07 197.751 194.07C198.035 198.772 203.432 199.057 203.432 199.057C203.858 194.782 204.852 191.362 206.13 188.798C211.385 177.969 221.469 179.251 221.469 179.251C222.606 173.551 216.498 172.126 216.498 172.126C216.498 172.126 209.113 128.667 198.177 120.118C187.24 111.569 169.629 107.294 169.629 107.294L151.449 106.012C151.449 106.012 115.8 113.136 108.698 125.39C101.597 137.644 102.875 184.096 102.875 184.096C97.3359 188.94 100.887 195.78 100.887 195.78Z" fill="#679EFC"/>
<path opacity="0.5" d="M130.145 193.641C130.145 193.641 127.162 167.281 136.962 144.34C136.962 144.34 135.4 179.25 149.603 189.081C163.806 198.913 187.951 196.918 193.916 214.017L140.655 213.589L130.145 193.641Z" fill="#4F83FC"/>
<path opacity="0.5" d="M191.927 180.248C193.064 189.367 197.893 194.212 197.893 194.212C198.177 198.914 203.574 199.199 203.574 199.199C204 194.924 204.994 191.504 206.272 188.94C203.432 186.232 200.307 181.958 198.319 175.831C194.484 163.292 196.899 149.755 197.183 148.758C194.058 160.299 192.496 174.691 191.927 180.248Z" fill="#4F83FC"/>
<path d="M153.295 202.759C153.295 202.759 133.269 188.653 116.226 194.352C99.1823 200.052 100.603 211.736 106.142 214.016H148.608L153.295 202.759Z" fill="#FED3C9"/>
<path d="M147.898 106.865C147.898 106.865 152.017 130.376 164.515 130.518C175.31 130.661 172.895 116.412 172.043 112.707C171.901 112.137 171.901 111.852 171.901 111.852L176.446 94.6112L152.585 81.9297L152.159 84.637L147.898 106.865Z" fill="#FED3C9"/>
<path d="M172.043 112.707C171.901 112.137 171.901 111.852 171.901 111.852L176.446 94.6112L152.585 81.9297L152.159 84.637C148.892 112.707 171.617 112.707 172.043 112.707Z" fill="#F0B2A4"/>
<path d="M149.318 73.5228C149.318 73.5228 146.193 67.5383 145.341 59.5589C144.631 52.292 146.619 50.5822 149.744 50.5822C149.744 50.5822 151.306 42.3178 155.141 39.468C158.976 36.6183 174.457 40.7504 180.422 44.3127C186.388 47.8749 190.649 38.0431 193.489 38.4706C196.188 38.8981 196.756 46.45 194.625 49.8697C194.625 49.8697 199.596 47.1624 200.449 44.3127C201.301 41.4629 206.982 46.5925 204.851 57.2791C202.863 67.8233 198.034 69.2482 198.034 69.2482C198.034 69.2482 197.182 80.5048 187.95 81.7872C178.86 83.0696 154.715 80.9323 154.715 80.9323L149.318 73.5228Z" fill="#4B2507"/>
<path d="M191.785 69.5338C191.785 69.5338 187.382 100.026 176.161 103.874C164.941 107.721 155.567 95.7517 154.147 92.617C152.727 89.3397 152.159 82.6428 152.159 82.6428C152.159 82.6428 148.324 83.4977 147.898 76.8007C147.472 69.9613 153.295 65.9716 154.715 77.6557C154.715 77.6557 160.254 74.6634 158.55 64.2617C158.55 64.2617 164.799 70.2462 173.605 70.2462C182.411 70.2462 174.741 64.2617 174.741 64.2617C174.741 64.2617 181.132 70.1038 191.785 69.5338Z" fill="#FED3C9"/>
<path d="M122.049 210.027H194.91V214.017H122.049V210.027Z" fill="#ABDAF7"/>
<path d="M121.907 210.027H144.348V214.017H121.907V210.027Z" fill="#70B2DD"/>
<path d="M134.264 210.169C134.264 210.169 140.655 200.48 150.313 200.623C157.698 200.765 157.84 205.325 157.84 205.325C157.84 205.325 162.669 204.755 162.812 210.027H134.264V210.169Z" fill="#FFC7AE"/>
<path d="M224.878 209.602C224.878 209.602 224.594 204.188 226.866 203.618C229.281 202.905 230.985 204.9 230.985 204.9C230.985 204.9 232.69 197.063 239.365 196.778C246.04 196.493 257.971 203.333 250.585 209.602H224.878Z" fill="#FED3C9"/>
<path d="M207.835 211.739C207.835 212.879 208.829 213.876 209.965 213.876H249.875C251.012 213.876 252.006 212.879 252.006 211.739C252.006 210.456 251.012 209.602 249.875 209.602H209.965C208.829 209.602 207.835 210.599 207.835 211.739Z" fill="#70B2DD"/>
<path d="M219.623 211.739C219.623 212.879 220.617 213.876 221.754 213.876H249.875C251.012 213.876 252.006 212.879 252.006 211.739C252.006 210.456 251.012 209.602 249.875 209.602H221.754C220.617 209.602 219.623 210.599 219.623 211.739Z" fill="#ABDAF7"/>
<path d="M229.991 206.038L237.093 182.813C237.377 181.815 238.513 181.245 239.507 181.53C240.644 181.815 241.212 183.098 240.928 184.238L232.406 206.751C232.406 206.608 230.986 207.463 229.991 206.038Z" fill="#525559"/>
<path d="M279.843 148.333C279.133 153.035 280.695 157.167 283.536 157.595C286.377 158.022 289.359 154.602 290.069 150.043C290.779 145.34 289.217 141.208 286.377 140.781C283.536 140.211 280.553 143.631 279.843 148.333Z" fill="white" stroke="#F230DB" stroke-miterlimit="10"/>
<path d="M236.667 189.511H312.368C315.635 189.511 318.618 187.516 319.896 184.382C328.702 162.153 335.235 140.638 337.933 120.119C338.502 115.275 334.809 111 329.838 111H253.142C249.165 111 245.756 113.992 245.188 117.982C242.348 137.075 236.667 157.451 228.997 178.967C227.151 183.954 230.985 189.511 236.667 189.511Z" fill="#D2EEFA"/>
<path d="M239.649 189.511H312.368C315.635 189.511 318.618 187.516 319.896 184.382C328.702 162.153 335.235 140.638 337.933 120.119C338.502 115.275 334.809 111 329.838 111H256.267C252.29 111 248.881 113.992 248.313 117.982C245.472 137.075 239.791 157.451 232.122 178.967C230.133 183.954 234.11 189.511 239.649 189.511Z" fill="#BFE7F9"/>
<path d="M243.484 213.877H272.458C276.719 213.877 280.412 211.17 281.832 207.18L290.638 176.688C285.809 176.688 281.122 176.688 276.435 176.688C274.872 176.688 273.31 176.688 271.748 176.688L264.788 200.483C263.794 203.19 261.38 205.043 258.681 205.47L247.745 207.18C245.898 207.465 244.478 208.89 244.052 210.6L243.484 213.877Z" fill="#CBEFFF"/>
<path opacity="0.35" d="M258.681 205.47L261.095 205.185C264.504 204.9 267.629 202.62 268.907 199.486L276.435 176.688C274.872 176.688 273.31 176.688 271.748 176.688L264.788 200.483C263.794 203.19 261.521 205.043 258.681 205.47Z" fill="#7CD8FF"/>
<path d="M280.412 149.33C279.276 153.89 280.696 158.022 283.537 158.734C286.377 159.447 289.502 156.312 290.496 151.752C291.632 147.193 290.212 143.061 287.371 142.348C284.531 141.778 281.406 144.913 280.412 149.33Z" fill="white"/>
<path d="M19.7877 213.875H365.629V220.999H19.7877V213.875Z" fill="#A6DEFF"/>
<path d="M19.7876 213.875H96.4834V220.999H19.7876V213.875Z" fill="#99D5FA"/>
<path d="M56.0049 184.809L59.2716 164.148L69.9238 165.431L65.947 186.092L56.0049 184.809Z" fill="#FFAC60"/>
<path d="M56.2893 182.956L52.5966 157.45C52.4545 156.595 51.7444 156.168 50.8922 156.168C50.1821 156.31 49.614 157.023 49.756 157.735L53.7328 184.096H52.1705L46.7734 163.862C46.6313 163.15 45.7792 162.58 45.069 162.865C44.2169 163.007 43.7908 163.862 43.9328 164.717L49.0458 184.238L54.1589 186.661L56.2893 182.956Z" fill="#E41111"/>
<path d="M45.6365 182.957V209.317C45.6365 211.597 47.4829 213.592 49.8974 213.592H65.0946C67.3671 213.592 69.3555 211.74 69.3555 209.317V182.957H45.6365Z" fill="#ABDAF7"/>
<path d="M45.4951 182.957H69.072V189.084H45.4951V182.957Z" fill="#90C6E0"/>
<path opacity="0.35" d="M69.3556 88.3445C50.8436 88.3445 35.8367 73.289 35.8367 54.7172C35.8367 36.1453 50.8436 21.0898 69.3556 21.0898C87.8676 21.0898 102.875 36.1453 102.875 54.7172C102.875 73.289 87.8676 88.3445 69.3556 88.3445Z" fill="#70B2DD"/>
<path d="M56.0028 80.6909C40.3791 72.9761 33.9475 54.0155 41.6375 38.3413C49.3274 22.6671 68.2268 16.2147 83.8505 23.9295C99.4742 31.6443 105.906 50.6049 98.2158 66.2791C90.5259 81.9533 71.6264 88.4057 56.0028 80.6909Z" fill="#99D5FA"/>
<path d="M46.9759 55.8329C45.067 43.1494 53.7684 31.3149 66.411 29.3998C79.0536 27.4847 90.85 36.2142 92.7589 48.8977C94.6678 61.5813 85.9665 73.4158 73.3238 75.3309C60.6812 77.246 48.8849 68.5164 46.9759 55.8329Z" fill="white"/>
<path d="M56.8569 51.2955H68.2192V35.7642C68.2192 34.4818 69.2134 33.4844 70.4917 33.4844C71.7699 33.4844 72.7642 34.4818 72.7642 35.7642V55.2851H71.2018H68.3613H56.9989C55.8627 55.2851 55.0105 54.4302 55.0105 53.2903C55.0105 52.1504 55.7207 51.2955 56.8569 51.2955Z" fill="#ABDAF7"/>
</svg>
