<svg id="Layer_1" data-name="Layer 1" xmlns="http://www.w3.org/2000/svg" viewBox="0 0 356 65"><defs><style>.cls-1{fill:#de4d20;}.cls-2{fill:#2d2e83;}.cls-3{fill:#1d1d1b;}</style></defs><title>aapoon meet - Logo ( Final )</title><path class="cls-1" d="M80.27,42a12.2,12.2,0,0,1-4.87-1,12.89,12.89,0,0,1-4-2.65,12.45,12.45,0,0,1-2.7-3.92,12.18,12.18,0,0,1,0-9.62,12.57,12.57,0,0,1,2.7-3.94,12.82,12.82,0,0,1,4-2.66,12.62,12.62,0,0,1,9.7,0,12.86,12.86,0,0,1,4,2.61,12.49,12.49,0,0,1,2.7,3.88,12,12,0,0,1,1.05,4.74v9.1a3.37,3.37,0,0,1-.27,1.36,3.44,3.44,0,0,1-1.86,1.82,3.52,3.52,0,0,1-1.36.27,3.31,3.31,0,0,1-1.71-.43,3.26,3.26,0,0,1-1.17-1.17,13.31,13.31,0,0,1-2.93,1.18A12.29,12.29,0,0,1,80.27,42Zm0-6.77a5.78,5.78,0,0,0,2.23-.43,5.61,5.61,0,0,0,1.82-1.19,5.72,5.72,0,0,0,1.22-1.77,5.5,5.5,0,0,0,0-4.36,5.73,5.73,0,0,0-1.22-1.77,5.61,5.61,0,0,0-1.82-1.19,5.78,5.78,0,0,0-2.23-.43,5.62,5.62,0,0,0-2.19.43,5.8,5.8,0,0,0-1.82,1.19A5.63,5.63,0,0,0,75,27.52a5.5,5.5,0,0,0,0,4.36,5.62,5.62,0,0,0,1.24,1.77,5.8,5.8,0,0,0,1.82,1.19A5.62,5.62,0,0,0,80.26,35.27Z"/><path class="cls-1" d="M107.72,42a12.2,12.2,0,0,1-4.87-1,12.89,12.89,0,0,1-4-2.65,12.45,12.45,0,0,1-2.7-3.92,12.18,12.18,0,0,1,0-9.62,12.57,12.57,0,0,1,2.7-3.94,12.82,12.82,0,0,1,4-2.66,12.62,12.62,0,0,1,9.7,0,12.86,12.86,0,0,1,4,2.61,12.49,12.49,0,0,1,2.7,3.88,12,12,0,0,1,1.05,4.74v9.1a3.37,3.37,0,0,1-.27,1.36,3.44,3.44,0,0,1-1.86,1.82,3.52,3.52,0,0,1-1.36.27,3.31,3.31,0,0,1-1.71-.43,3.26,3.26,0,0,1-1.17-1.17A13.31,13.31,0,0,1,111,41.62,12.29,12.29,0,0,1,107.72,42Zm0-6.77a5.78,5.78,0,0,0,2.23-.43,5.61,5.61,0,0,0,1.82-1.19A5.72,5.72,0,0,0,113,31.87a5.5,5.5,0,0,0,0-4.36,5.73,5.73,0,0,0-1.22-1.77,5.61,5.61,0,0,0-1.82-1.19,5.78,5.78,0,0,0-2.23-.43,5.62,5.62,0,0,0-2.19.43,5.8,5.8,0,0,0-1.82,1.19,5.63,5.63,0,0,0-1.24,1.77,5.5,5.5,0,0,0,0,4.36,5.62,5.62,0,0,0,1.24,1.77,5.8,5.8,0,0,0,1.82,1.19A5.62,5.62,0,0,0,107.71,35.27Z"/><path class="cls-1" d="M123.78,29.49a11.59,11.59,0,0,1,1-4.74,12.54,12.54,0,0,1,2.72-3.88,13,13,0,0,1,4-2.61,12.56,12.56,0,0,1,9.67,0,12.53,12.53,0,0,1,6.67,6.6,12.18,12.18,0,0,1,0,9.62,12.57,12.57,0,0,1-2.69,3.92,12.7,12.7,0,0,1-4,2.65,12.23,12.23,0,0,1-4.86,1,12.41,12.41,0,0,1-3-.35,13,13,0,0,1-2.75-1V47a3.88,3.88,0,0,1-.24,1.38,3.51,3.51,0,0,1-.68,1.13,3,3,0,0,1-1.05.75,3.47,3.47,0,0,1-3.82-.75,3.68,3.68,0,0,1-.76-1.13,3.4,3.4,0,0,1-.28-1.38V29.49Zm6.86,0.2a5.31,5.31,0,0,0,.45,2.18,5.62,5.62,0,0,0,1.23,1.77,5.75,5.75,0,0,0,1.82,1.19,5.69,5.69,0,0,0,7.43-3,5.51,5.51,0,0,0,0-4.36,5.74,5.74,0,0,0-1.22-1.77,5.78,5.78,0,0,0-6.21-1.19,5.75,5.75,0,0,0-1.82,1.19,5.63,5.63,0,0,0-1.23,1.77A5.32,5.32,0,0,0,130.64,29.7Z"/><path class="cls-1" d="M150.07,29.7a11.85,11.85,0,0,1,1-4.81,12.57,12.57,0,0,1,2.7-3.94,12.82,12.82,0,0,1,4-2.66,12.67,12.67,0,0,1,9.75,0,12.53,12.53,0,0,1,6.67,6.6,12.18,12.18,0,0,1,0,9.62,12.57,12.57,0,0,1-2.69,3.92,12.7,12.7,0,0,1-4,2.65,12.67,12.67,0,0,1-9.75,0,12.89,12.89,0,0,1-4-2.65,12.45,12.45,0,0,1-2.7-3.92A11.76,11.76,0,0,1,150.07,29.7Zm6.84,0a5.31,5.31,0,0,0,.45,2.18,5.62,5.62,0,0,0,1.24,1.77,5.8,5.8,0,0,0,1.82,1.19,5.62,5.62,0,0,0,2.19.43,5.78,5.78,0,0,0,2.23-.43,5.61,5.61,0,0,0,1.82-1.19,5.72,5.72,0,0,0,1.22-1.77,5.5,5.5,0,0,0,0-4.36,5.73,5.73,0,0,0-1.22-1.77,5.61,5.61,0,0,0-1.82-1.19,5.78,5.78,0,0,0-2.23-.43,5.62,5.62,0,0,0-2.19.43,5.8,5.8,0,0,0-1.82,1.19,5.63,5.63,0,0,0-1.24,1.77A5.31,5.31,0,0,0,156.9,29.7Z"/><path class="cls-1" d="M176.35,29.7a11.85,11.85,0,0,1,1-4.81,12.57,12.57,0,0,1,2.7-3.94,12.83,12.83,0,0,1,4-2.66,12.67,12.67,0,0,1,9.75,0,12.54,12.54,0,0,1,6.67,6.6,12.18,12.18,0,0,1,0,9.62,12.52,12.52,0,0,1-6.67,6.56,12.67,12.67,0,0,1-9.75,0,12.9,12.9,0,0,1-4-2.65,12.46,12.46,0,0,1-2.7-3.92A11.76,11.76,0,0,1,176.35,29.7Zm6.84,0a5.31,5.31,0,0,0,.45,2.18,5.63,5.63,0,0,0,1.24,1.77,5.8,5.8,0,0,0,1.82,1.19,5.62,5.62,0,0,0,2.19.43,5.78,5.78,0,0,0,2.23-.43,5.61,5.61,0,0,0,1.82-1.19,5.72,5.72,0,0,0,1.22-1.77,5.49,5.49,0,0,0,0-4.36,5.73,5.73,0,0,0-1.22-1.77,5.61,5.61,0,0,0-1.82-1.19,5.78,5.78,0,0,0-2.23-.43,5.62,5.62,0,0,0-2.19.43,5.8,5.8,0,0,0-1.82,1.19,5.64,5.64,0,0,0-1.24,1.77A5.32,5.32,0,0,0,183.19,29.7Z"/><path class="cls-1" d="M203,29.34a11.47,11.47,0,0,1,1-4.68,12.23,12.23,0,0,1,2.62-3.83,12.47,12.47,0,0,1,3.87-2.58,11.86,11.86,0,0,1,4.73-1,12.31,12.31,0,0,1,4.81,1,13.11,13.11,0,0,1,4,2.58,12.24,12.24,0,0,1,2.73,3.83,11.1,11.1,0,0,1,1,4.68v9.12a3.23,3.23,0,0,1-2,3,3.44,3.44,0,0,1-1.32.25A3.61,3.61,0,0,1,223,41.5a3.55,3.55,0,0,1-1.11-.7,3.23,3.23,0,0,1-.75-1,3.11,3.11,0,0,1-.27-1.3v-9.1a4.84,4.84,0,0,0-.5-2.05,5.59,5.59,0,0,0-1.28-1.69,6.19,6.19,0,0,0-1.82-1.14,5.54,5.54,0,0,0-2.12-.42,5.46,5.46,0,0,0-2.07.39,5.11,5.11,0,0,0-1.67,1.09,5.42,5.42,0,0,0-1.13,1.63,5.14,5.14,0,0,0-.45,2v9.25a3.26,3.26,0,0,1-.26,1.3,3.15,3.15,0,0,1-.72,1,3.46,3.46,0,0,1-1.06.7,3.3,3.3,0,0,1-1.29.25,3.58,3.58,0,0,1-1.33-.25,3.64,3.64,0,0,1-1.13-.7,3.32,3.32,0,0,1-.77-1,3,3,0,0,1-.28-1.3V29.34Z"/><path class="cls-2" d="M242,26.38a8.57,8.57,0,0,1,.73-3.52,9.47,9.47,0,0,1,2-2.89,9.17,9.17,0,0,1,2.92-2,9,9,0,0,1,3.57-.71,8.81,8.81,0,0,1,3.16.56,10.33,10.33,0,0,1,2.7,1.52,10.39,10.39,0,0,1,2.68-1.52,8.71,8.71,0,0,1,3.15-.56,9.43,9.43,0,0,1,3.62.71,9.58,9.58,0,0,1,5.09,4.84,8.21,8.21,0,0,1,.77,3.52V38.44a3.21,3.21,0,0,1-.27,1.32,3.28,3.28,0,0,1-.73,1.05,3.46,3.46,0,0,1-1.07.7,3.32,3.32,0,0,1-1.3.25,3.48,3.48,0,0,1-1.34-.25,3.41,3.41,0,0,1-1.08-.7,3.28,3.28,0,0,1-.73-1.05,3.21,3.21,0,0,1-.27-1.32V26.58a1.9,1.9,0,0,0-.23-0.91,2.49,2.49,0,0,0-.62-0.75,3,3,0,0,0-.86-0.49,2.68,2.68,0,0,0-.94-0.18,2.39,2.39,0,0,0-1.58.57,2.25,2.25,0,0,0-.81,1.43,1.57,1.57,0,0,0,0,.2,1.77,1.77,0,0,1,0,.23v5.17a3.2,3.2,0,0,1-.27,1.32,3.55,3.55,0,0,1-.72,1.06,3.34,3.34,0,0,1-1.07.72,3.29,3.29,0,0,1-1.31.27,3.35,3.35,0,0,1-1.34-.27,3.49,3.49,0,0,1-1.08-.72,3.45,3.45,0,0,1-.73-1.06,3.21,3.21,0,0,1-.27-1.32V26.91a1.43,1.43,0,0,0-.05-0.3v0a2.2,2.2,0,0,0-.19-0.91,2.47,2.47,0,0,0-.53-0.76,2.53,2.53,0,0,0-.77-0.52,2.3,2.3,0,0,0-.92-0.19,2.51,2.51,0,0,0-1.59.54,2.45,2.45,0,0,0-.9,1.36c0,0.08,0,.17,0,0.24a2.1,2.1,0,0,1,0,.24l-0.1,11.86a3.53,3.53,0,0,1-.29,1.32,3.41,3.41,0,0,1-.72,1.05,3.32,3.32,0,0,1-2.35,1,3.48,3.48,0,0,1-1.34-.25,3.42,3.42,0,0,1-1.08-.7,3.28,3.28,0,0,1-.73-1.05,3.21,3.21,0,0,1-.27-1.32V26.38Z"/><path class="cls-2" d="M282,32.71a6.08,6.08,0,0,0,2.13,2.08,5.63,5.63,0,0,0,2.88.76,6.29,6.29,0,0,0,1.61-.16,4.66,4.66,0,0,0,1.09-.44,3.74,3.74,0,0,1,1-.47,3.6,3.6,0,0,1,1-.14,3.12,3.12,0,0,1,1.32.28,3.36,3.36,0,0,1,1.05.76,3.61,3.61,0,0,1,.71,1.12A3.48,3.48,0,0,1,295,37.8a3,3,0,0,1-.49,1.63,4.11,4.11,0,0,1-1.49,1.34,9.2,9.2,0,0,1-2.51.91A16,16,0,0,1,287,42a12.38,12.38,0,0,1-4.89-1,13,13,0,0,1-4-2.65,12.53,12.53,0,0,1-2.72-3.92,11.64,11.64,0,0,1-1-4.8,11.79,11.79,0,0,1,1-4.84A12.67,12.67,0,0,1,287,17.3a12.44,12.44,0,0,1,4.84,1,12.6,12.6,0,0,1,6.71,6.5,12,12,0,0,1,1.07,4.76,3,3,0,0,1-.94,2.32,3.42,3.42,0,0,1-2.43.87H282Zm10.61-5.63a5.74,5.74,0,0,0-2.16-2.43,6.06,6.06,0,0,0-3.31-.91,5.6,5.6,0,0,0-3.29,1,6.11,6.11,0,0,0-2.06,2.39h10.82Z"/><path class="cls-2" d="M308.49,32.71a6.08,6.08,0,0,0,2.13,2.08,5.63,5.63,0,0,0,2.88.76,6.29,6.29,0,0,0,1.61-.16,4.66,4.66,0,0,0,1.09-.44,3.74,3.74,0,0,1,1-.47,3.6,3.6,0,0,1,1-.14,3.12,3.12,0,0,1,1.32.28,3.36,3.36,0,0,1,1.05.76,3.61,3.61,0,0,1,.71,1.12,3.48,3.48,0,0,1,.26,1.32,3,3,0,0,1-.49,1.63,4.11,4.11,0,0,1-1.49,1.34,9.2,9.2,0,0,1-2.51.91,16,16,0,0,1-3.53.34,12.38,12.38,0,0,1-4.89-1,13,13,0,0,1-4-2.65,12.53,12.53,0,0,1-2.72-3.92,11.64,11.64,0,0,1-1-4.8,11.79,11.79,0,0,1,1-4.84A12.67,12.67,0,0,1,313.5,17.3a12.44,12.44,0,0,1,4.84,1,12.6,12.6,0,0,1,6.71,6.5,12,12,0,0,1,1.07,4.76,3,3,0,0,1-.94,2.32,3.42,3.42,0,0,1-2.43.87H308.49Zm10.61-5.63a5.74,5.74,0,0,0-2.16-2.43,6.06,6.06,0,0,0-3.31-.91,5.6,5.6,0,0,0-3.29,1,6.11,6.11,0,0,0-2.06,2.39H319.1Z"/><path class="cls-2" d="M328,13.3a3.17,3.17,0,0,1,.28-1.33,3.77,3.77,0,0,1,.75-1.09,3.41,3.41,0,0,1,2.42-1,3.55,3.55,0,0,1,1.35.27,3.69,3.69,0,0,1,1.14.72,3.49,3.49,0,0,1,.78,1.09,3.14,3.14,0,0,1,.3,1.34v3.24h7.89a3.37,3.37,0,0,1,1.32.27,3.5,3.5,0,0,1,1.1.73,3.45,3.45,0,0,1,.75,1.09,3.24,3.24,0,0,1,.27,1.3,3,3,0,0,1-.27,1.27,3.27,3.27,0,0,1-.75,1,3.57,3.57,0,0,1-2.43,1H335v6.55a5.58,5.58,0,0,0,1.59,3.95,5.41,5.41,0,0,0,1.75,1.19,5.47,5.47,0,0,0,2.18.43,6.58,6.58,0,0,0,2-.28A4.16,4.16,0,0,0,344,34.1a5.54,5.54,0,0,1,1.2-.82,3.07,3.07,0,0,1,1.4-.32,2.87,2.87,0,0,1,1.13.24,3.08,3.08,0,0,1,1,.67,3.63,3.63,0,0,1,.69,1,2.85,2.85,0,0,1,.27,1.23,4,4,0,0,1-.32,1.55A4.12,4.12,0,0,1,348.5,39a10.54,10.54,0,0,1-3.62,2.29,12.79,12.79,0,0,1-9.25-.21,12.69,12.69,0,0,1-4-2.65A12.53,12.53,0,0,1,329,34.51a11.84,11.84,0,0,1-1-4.82V13.3Z"/><path class="cls-1" d="M53.07,19.52a25,25,0,0,0-5.33-7.77,25.34,25.34,0,0,0-7.82-5.23,23.82,23.82,0,0,0-9.54-1.93,23.87,23.87,0,0,0-9.62,2A25.1,25.1,0,0,0,7.56,19.77a24,24,0,0,0-2,9.65,23.84,23.84,0,0,0,2,9.62,25,25,0,0,0,5.33,7.84,25.49,25.49,0,0,0,7.87,5.3,24.73,24.73,0,0,0,16,1.12c2-.56,3.15-1.06,5.79-4.62,0.57,1,1.34,4,2.31,4.6a6.46,6.46,0,0,0,3.38.86,6.83,6.83,0,0,0,6.9-6.9V29A24.42,24.42,0,0,0,53.07,19.52ZM46,21.44q0,7.89-.06,15.77c0,0.1,0,.2,0,0.3L46,38,45.77,38l-6.32-6.23q0,1.67,0,3.34a5.33,5.33,0,0,1-.11,1.38,3.19,3.19,0,0,1-3,2.42c-5.45,0-10.9,0-16.36,0a1.72,1.72,0,0,0-1.23,0,0.3,0.3,0,0,0-.15-0.36,4.88,4.88,0,0,1-1.2-1l-0.49-1.09,0-.58q0-2.94,0-5.88,0,2.94,0,5.88a1.15,1.15,0,0,1-.06-0.59q0-6.18,0-12.37c0-.34.06-0.68,0.09-1l0.51-1.1,0.74-.83,1.09-.5,0.12,0c5.45,0,10.9,0,16.35,0a3.57,3.57,0,0,1,3.64,2.13A4.3,4.3,0,0,1,39.46,23c0,1.07,0,2.14,0,3.21,0,0.14-.1.32,0,0.38L42,24.18l0.1-.1,0.62-.62h0l0.13-.13h0L43,23.21l0.1-.1L43.24,23l2.29-2.24c0.15-.15.29-0.46,0.54-0.09A1.08,1.08,0,0,0,46,21.44Z"/><path class="cls-3" d="M250.25,53.43v3a0.72,0.72,0,0,1-.73.73,0.74,0.74,0,0,1-.75-0.73v-3a0.9,0.9,0,0,0-.94-0.84,0.91,0.91,0,0,0-1,.84v3a0.74,0.74,0,0,1-1.47,0v-3a1,1,0,0,0-1.93,0v3.08a0.73,0.73,0,0,1-.74.72,0.75,0.75,0,0,1-.74-0.72V51.81a0.76,0.76,0,0,1,.74-0.75,0.69,0.69,0,0,1,.57.29,2.56,2.56,0,0,1,1.14-.27,2.52,2.52,0,0,1,1.71.66,2.43,2.43,0,0,1,1.71-.66,2.38,2.38,0,0,1,2.43,2.31v0Z"/><path class="cls-3" d="M257.32,51.76v4.67a0.7,0.7,0,0,1-.72.7,0.65,0.65,0,0,1-.66-0.7V56.29a2.84,2.84,0,0,1-1.89.72,2.95,2.95,0,1,1,1.89-5.19V51.76a0.65,0.65,0,0,1,.66-0.7A0.7,0.7,0,0,1,257.32,51.76Zm-1.72,2.31a1.55,1.55,0,1,0-1.55,1.51A1.54,1.54,0,0,0,255.6,54.07Z"/><path class="cls-3" d="M263.58,56.91a0.82,0.82,0,0,1-.56.23,0.73,0.73,0,0,1-.51-0.2L260,54.66v1.82a0.75,0.75,0,0,1-1.51,0V48.7a0.75,0.75,0,0,1,1.51,0v4.13l2.44-1.66a0.76,0.76,0,0,1,1.05.18,0.74,0.74,0,0,1-.17,1l-2.07,1.38,2.3,2.09A0.76,0.76,0,0,1,263.58,56.91Z"/><path class="cls-3" d="M269.29,54.52h-3.81a1.63,1.63,0,0,0,1.57,1.23,2.09,2.09,0,0,0,1.3-.46,0.75,0.75,0,0,1,1.05,0,0.72,0.72,0,0,1,0,1,3.47,3.47,0,0,1-2.34.87,3.06,3.06,0,1,1,0-6.13,2.71,2.71,0,0,1,.54,0,3,3,0,0,1,2,1.4,2.34,2.34,0,0,1,.4,1.2,1,1,0,0,1-.1.35A0.67,0.67,0,0,1,269.29,54.52Zm-3.6-1.23h2.62a1.38,1.38,0,0,0-1.26-.73A1.61,1.61,0,0,0,265.69,53.29Z"/><path class="cls-3" d="M282.37,53.43v3a0.72,0.72,0,0,1-.73.73,0.74,0.74,0,0,1-.75-0.73v-3a0.9,0.9,0,0,0-.94-0.84,0.91,0.91,0,0,0-1,.84v3a0.74,0.74,0,0,1-1.47,0v-3a1,1,0,0,0-1.93,0v3.08a0.73,0.73,0,0,1-.74.72,0.75,0.75,0,0,1-.74-0.72V51.81a0.76,0.76,0,0,1,.74-0.75,0.69,0.69,0,0,1,.57.29,2.56,2.56,0,0,1,1.14-.27,2.52,2.52,0,0,1,1.71.66,2.43,2.43,0,0,1,1.71-.66,2.38,2.38,0,0,1,2.43,2.31v0Z"/><path class="cls-3" d="M288.45,54.52h-3.81a1.63,1.63,0,0,0,1.57,1.23,2.09,2.09,0,0,0,1.3-.46,0.75,0.75,0,0,1,1.05,0,0.72,0.72,0,0,1,0,1,3.47,3.47,0,0,1-2.34.87,3.06,3.06,0,1,1,0-6.13,2.71,2.71,0,0,1,.54,0,3,3,0,0,1,2,1.4,2.34,2.34,0,0,1,.4,1.2,1,1,0,0,1-.1.35A0.67,0.67,0,0,1,288.45,54.52Zm-3.6-1.23h2.62a1.38,1.38,0,0,0-1.26-.73A1.61,1.61,0,0,0,284.84,53.29Z"/><path class="cls-3" d="M294.85,54.52H291a1.63,1.63,0,0,0,1.57,1.23,2.09,2.09,0,0,0,1.3-.46,0.75,0.75,0,0,1,1.05,0,0.72,0.72,0,0,1,0,1,3.47,3.47,0,0,1-2.34.87,3.06,3.06,0,1,1,0-6.13,2.71,2.71,0,0,1,.54,0,3,3,0,0,1,2,1.4,2.34,2.34,0,0,1,.4,1.2,1,1,0,0,1-.1.35A0.67,0.67,0,0,1,294.85,54.52Zm-3.6-1.23h2.62a1.38,1.38,0,0,0-1.26-.73A1.61,1.61,0,0,0,291.25,53.29Z"/><path class="cls-3" d="M299.54,56.4a0.73,0.73,0,0,1-.74.73h-0.32A1.66,1.66,0,0,1,297,55.47V52.4h-0.53a0.73,0.73,0,1,1,0-1.46H297V48.6a0.74,0.74,0,0,1,1.48,0v2.33h0.41a0.73,0.73,0,1,1,0,1.46h-0.41v2.9a0.56,0.56,0,0,0,.09.32,0.37,0.37,0,0,0,.26,0A0.74,0.74,0,0,1,299.54,56.4Z"/><path class="cls-3" d="M301.31,50a0.77,0.77,0,0,1-.78-0.75V49.2a0.77,0.77,0,0,1,1.53,0v0.06A0.76,0.76,0,0,1,301.31,50Zm0,7.17a0.77,0.77,0,0,1-.78-0.76V51.7a0.77,0.77,0,0,1,1.53,0v4.71A0.76,0.76,0,0,1,301.31,57.17Z"/><path class="cls-3" d="M309,54.11v2.31a0.74,0.74,0,0,1-1.47,0V54.11a1.5,1.5,0,0,0-1.42-1.56,1.63,1.63,0,0,0-1.46,1.79v2.08a0.74,0.74,0,0,1-1.48,0V51.75a0.74,0.74,0,0,1,1.44-.23,2.79,2.79,0,0,1,1.51-.44A3,3,0,0,1,309,54.11Z"/><path class="cls-3" d="M316.07,51.73v5.53a3.19,3.19,0,0,1-5.59,2.06,0.75,0.75,0,0,1,1.15-1,1.68,1.68,0,0,0,2.93-1.09V56.72A3.07,3.07,0,1,1,313,51a3,3,0,0,1,1.61.45,0.77,0.77,0,0,1,.72-0.51A0.75,0.75,0,0,1,316.07,51.73Zm-1.51,2.37A1.58,1.58,0,1,0,313,55.66,1.57,1.57,0,0,0,314.56,54.09Z"/><path class="cls-3" d="M319.49,57.19a3.14,3.14,0,0,1-2-.7,0.71,0.71,0,0,1,0-1,0.73,0.73,0,0,1,1,0,1.55,1.55,0,0,0,1.52.18,0.37,0.37,0,0,0-.07-0.68,1.28,1.28,0,0,0-.53-0.06,2.86,2.86,0,0,1-1-.13,1.84,1.84,0,0,1-1.21-1.5,1.79,1.79,0,0,1,.56-1.51,2.65,2.65,0,0,1,2.18-.54,2.22,2.22,0,0,1,1.18.54,0.72,0.72,0,0,1,0,1,0.76,0.76,0,0,1-.63.23,0.78,0.78,0,0,1-.32-0.11,1.15,1.15,0,0,0-.52-0.24c-0.37-.06-1.06,0-1,0.49a0.48,0.48,0,0,0,.22.26,2.08,2.08,0,0,0,.51,0,2.93,2.93,0,0,1,1.14.2,1.86,1.86,0,0,1,1.13,1.67,1.89,1.89,0,0,1-.85,1.56A2.44,2.44,0,0,1,319.49,57.19Z"/><path class="cls-3" d="M331,54.52h-3.81a1.63,1.63,0,0,0,1.57,1.23,2.09,2.09,0,0,0,1.3-.46,0.75,0.75,0,0,1,1.05,0,0.72,0.72,0,0,1,0,1,3.47,3.47,0,0,1-2.34.87,3.06,3.06,0,1,1,0-6.13,2.71,2.71,0,0,1,.54,0,3,3,0,0,1,2,1.4,2.34,2.34,0,0,1,.4,1.2,1,1,0,0,1-.1.35A0.67,0.67,0,0,1,331,54.52Zm-3.6-1.23H330a1.38,1.38,0,0,0-1.26-.73A1.61,1.61,0,0,0,327.38,53.29Z"/><path class="cls-3" d="M338.38,51.76v4.67a0.7,0.7,0,0,1-.72.7,0.65,0.65,0,0,1-.66-0.7V56.29a2.84,2.84,0,0,1-1.89.72A2.95,2.95,0,1,1,337,51.82V51.76a0.65,0.65,0,0,1,.66-0.7A0.7,0.7,0,0,1,338.38,51.76Zm-1.72,2.31a1.55,1.55,0,1,0-1.55,1.51A1.54,1.54,0,0,0,336.66,54.07Z"/><path class="cls-3" d="M341.76,57.19a3.14,3.14,0,0,1-2-.7,0.71,0.71,0,0,1,0-1,0.73,0.73,0,0,1,1,0,1.55,1.55,0,0,0,1.52.18,0.37,0.37,0,0,0-.07-0.68,1.28,1.28,0,0,0-.53-0.06,2.86,2.86,0,0,1-1-.13,1.84,1.84,0,0,1-1.21-1.5,1.79,1.79,0,0,1,.56-1.51,2.65,2.65,0,0,1,2.18-.54,2.22,2.22,0,0,1,1.18.54,0.72,0.72,0,0,1,0,1,0.76,0.76,0,0,1-.63.23,0.78,0.78,0,0,1-.32-0.11,1.15,1.15,0,0,0-.52-0.24c-0.37-.06-1.06,0-1,0.49a0.48,0.48,0,0,0,.22.26,2.08,2.08,0,0,0,.51,0,2.93,2.93,0,0,1,1.14.2A1.86,1.86,0,0,1,344,55.27a1.89,1.89,0,0,1-.85,1.56A2.44,2.44,0,0,1,341.76,57.19Z"/><path class="cls-3" d="M350.39,51.82v5.33a3.08,3.08,0,0,1-3,3.09,3,3,0,0,1-2.3-1.07,0.75,0.75,0,0,1,.07-1,0.7,0.7,0,0,1,1,.09,1.59,1.59,0,0,0,2.81-1.06v-0.5a2.86,2.86,0,0,1-1.41.38,2.93,2.93,0,0,1-2.83-3V51.85a0.72,0.72,0,1,1,1.44,0V54a1.41,1.41,0,1,0,2.81,0V51.82A0.72,0.72,0,1,1,350.39,51.82Z"/></svg>